<?xml version="1.0" encoding="UTF-8"?>
<svg id="Camada_2" data-name="Camada 2" xmlns="http://www.w3.org/2000/svg" viewBox="0 0 247.75 130.59">
  <g id="Camada_1-2" data-name="Camada 1">
    <g>
      <polygon points="121.38 130.21 121.38 39.68 86.66 39.68 86.66 4.96 204.29 0 204.29 39.68 166.03 39.68 169.75 130.21 121.38 130.21"/>
      <path d="m225.83,102.79l6.05-4.26c6.05-4.26,6.95-19.28,6.95-19.28,0,0,1.34-18.61-20.85-26.23-22.19-7.62-51.56,6.28-51.56,6.28v70.84l30.71.45v-20.85l16.23,20.77h34.37l-21.91-27.72Zm-16.36-14.57s-5.6,5.38-11.21,5.38h-5.6v-17.93s11.43-2.24,14.8,0c3.36,2.24,2.02,12.55,2.02,12.55Z"/>
      <path d="m71.68,5.09L0,130.21h143.36L71.68,5.09Zm0,109.04c-15.09,0-27.32-12.23-27.32-27.32s12.23-27.32,27.32-27.32,27.32,12.23,27.32,27.32-12.23,27.32-27.32,27.32Z"/>
    </g>
  </g>
</svg>